<?xml version="1.0" standalone="no"?>
<!DOCTYPE svg PUBLIC "-//W3C//DTD SVG 20010904//EN"
 "http://www.w3.org/TR/2001/REC-SVG-20010904/DTD/svg10.dtd">
<svg version="1.0" xmlns="http://www.w3.org/2000/svg"
 width="800.000000pt" height="800.000000pt" viewBox="0 0 800.000000 800.000000"
 preserveAspectRatio="xMidYMid meet">
<metadata>
Created by potrace 1.14, written by Peter Selinger 2001-2017
</metadata>
<g transform="translate(0.000000,800.000000) scale(0.100000,-0.100000)"
fill="#000000" stroke="none">
<path d="M2000 6880 c-113 -24 -169 -44 -265 -93 -280 -145 -472 -398 -543
-717 -16 -69 -17 -239 -17 -2070 0 -1831 1 -2001 17 -2070 82 -368 328 -650
675 -773 162 -58 124 -57 1478 -57 1339 0 1314 -1 1470 52 367 125 642 453
694 832 15 109 15 3923 0 4032 -31 226 -146 445 -319 608 -125 117 -266 195
-448 248 l-77 22 -1290 3 c-1219 2 -1295 1 -1375 -17z m2665 -313 c262 -77
441 -256 521 -522 18 -57 19 -160 21 -1955 l3 -1894 -393 -393 -393 -394
-1169 4 c-1313 3 -1205 -3 -1375 80 -69 33 -103 59 -176 132 -78 76 -98 104
-138 185 -81 166 -76 -1 -76 2195 0 1703 2 1968 15 2023 55 232 227 430 447
514 124 47 108 46 1418 45 1148 -2 1239 -3 1295 -20z"/>
<path d="M2137 5845 c-191 -53 -344 -222 -377 -416 -54 -318 193 -609 515
-609 198 0 380 115 466 293 73 154 73 314 -1 462 -65 131 -191 235 -328 270
-68 18 -210 18 -275 0z m466 -274 c-15 -20 -54 -70 -88 -111 -33 -42 -118
-149 -189 -238 -71 -89 -136 -162 -143 -162 -12 0 -247 304 -259 334 -12 31
22 24 138 -27 l122 -54 210 158 c162 122 213 156 223 147 11 -9 8 -18 -14 -47z"/>
<path d="M3237 5422 c-30 -33 -40 -78 -27 -117 23 -69 -33 -65 871 -65 l817 0
26 31 c36 42 36 110 1 144 l-24 25 -824 0 c-783 0 -825 -1 -840 -18z"/>
<path d="M2145 4506 c-79 -19 -175 -75 -241 -141 -201 -199 -202 -528 -1 -729
278 -276 739 -171 863 196 97 287 -61 586 -355 672 -64 19 -194 20 -266 2z
m478 -250 c-28 -47 -436 -545 -443 -541 -10 6 -174 219 -230 298 -53 75 -33
78 110 13 l123 -56 210 160 c159 119 214 156 224 148 7 -6 10 -15 6 -22z"/>
<path d="M3243 4085 c-13 -9 -28 -33 -34 -54 -10 -32 -8 -43 10 -78 11 -22 27
-43 36 -47 9 -3 382 -6 829 -6 l813 0 27 26 c19 20 26 37 26 66 0 44 -22 93
-45 102 -9 3 -382 6 -829 6 -714 0 -814 -2 -833 -15z"/>
<path d="M2141 3164 c-390 -105 -519 -591 -232 -874 105 -104 218 -150 367
-150 355 0 605 348 492 685 -55 166 -194 296 -363 340 -73 19 -192 18 -264 -1z
m484 -234 c9 -14 -432 -561 -447 -554 -21 9 -259 334 -253 344 11 17 33 11
147 -40 l111 -51 206 156 c112 85 210 155 217 155 7 0 15 -4 19 -10z"/>
<path d="M3243 2745 c-32 -23 -47 -77 -33 -120 23 -69 -33 -65 873 -65 l818 0
24 26 c35 38 34 101 -1 143 l-26 31 -817 0 c-710 0 -819 -2 -838 -15z"/>
<path d="M6444 5918 c-32 -40 -66 -81 -75 -91 -18 -19 -27 -75 -338 -1992 -33
-203 -90 -551 -126 -771 -36 -221 -65 -411 -65 -422 0 -11 8 -23 18 -26 46
-13 422 -68 434 -63 11 4 28 83 61 289 45 274 130 795 257 1568 156 946 210
1285 210 1308 0 46 -72 223 -94 233 -19 7 -192 39 -215 39 -5 0 -35 -33 -67
-72z"/>
<path d="M5846 2393 c14 -66 37 -142 59 -198 13 -33 33 -86 45 -118 12 -32 25
-57 30 -55 4 2 46 50 94 108 88 106 163 217 153 226 -6 6 -340 64 -370 64 -14
0 -16 -6 -11 -27z"/>
</g>
</svg>
